<?xml version="1.0" standalone="no"?>
<svg viewBox="0 0 200 200" xmlns="http://www.w3.org/2000/svg">
  <path fill="#FA4D56" fill-opacity="0.4" d="M19.5,-35C26.2,-26.2,33,-22.2,38.8,-15.8C44.6,-9.5,49.4,-0.8,46.9,5.7C44.4,12.3,34.5,16.9,27.3,21.7C20,26.5,15.4,31.5,7.6,40.6C-0.2,49.6,-11.2,62.6,-22.3,64.5C-33.4,66.5,-44.6,57.4,-56.2,47C-67.9,36.6,-80,24.9,-80.7,12.3C-81.4,-0.3,-70.6,-13.8,-56.9,-18.6C-43.2,-23.3,-26.5,-19.2,-16.5,-26.5C-6.5,-33.9,-3.3,-52.5,1.6,-55C6.5,-57.5,12.9,-43.8,19.5,-35Z" transform="translate(100 100)" />
</svg>