<svg id="Flat" height="512" viewBox="0 0 512 512" width="512" xmlns="http://www.w3.org/2000/svg"><path d="m24 64h272v384h-272z" fill="#eb423f"/><path d="m56 320h208v128h-208z" fill="#d13330"/><path d="m56 64h208v112h-208z" fill="#d13330"/><path d="m192 248-48 24v-48z" fill="#e9eef2"/><g fill="#a82a27"><path d="m24 88h32v16h-32z"/><path d="m24 120h32v16h-32z"/><path d="m24 152h32v16h-32z"/><path d="m24 184h32v16h-32z"/><path d="m24 216h32v16h-32z"/><path d="m24 248h32v16h-32z"/><path d="m24 280h32v16h-32z"/><path d="m264 88h32v16h-32z"/><path d="m264 120h32v16h-32z"/><path d="m264 152h32v16h-32z"/><path d="m264 184h32v16h-32z"/><path d="m264 216h32v16h-32z"/><path d="m264 248h32v16h-32z"/><path d="m264 280h32v16h-32z"/><path d="m24 312h32v16h-32z"/><path d="m24 344h32v16h-32z"/><path d="m24 376h32v16h-32z"/><path d="m24 408h32v16h-32z"/><path d="m48 64h16v384h-16z"/><path d="m256 64h16v384h-16z"/></g><path d="m488 448h-128l-24-40-24 40h-128v-128h304z" fill="#e9eef2"/><path d="m312 392-16 24h-80v-64h96z" fill="#3397e8"/><path d="m360 392 16 24h80v-64h-96z" fill="#eb423f"/></svg>