<?xml version="1.0" standalone="no"?><svg xmlns="http://www.w3.org/2000/svg" viewBox="0 0 1440 320"><path fill="#ff5500" fill-opacity="0.1" d="M0,128L16,138.7C32,149,64,171,96,197.3C128,224,160,256,192,245.3C224,235,256,181,288,170.7C320,160,352,192,384,181.3C416,171,448,117,480,101.3C512,85,544,107,576,149.3C608,192,640,256,672,240C704,224,736,128,768,106.7C800,85,832,139,864,149.3C896,160,928,128,960,144C992,160,1024,224,1056,218.7C1088,213,1120,139,1152,133.3C1184,128,1216,192,1248,197.3C1280,203,1312,149,1344,117.3C1376,85,1408,75,1424,69.3L1440,64L1440,0L1424,0C1408,0,1376,0,1344,0C1312,0,1280,0,1248,0C1216,0,1184,0,1152,0C1120,0,1088,0,1056,0C1024,0,992,0,960,0C928,0,896,0,864,0C832,0,800,0,768,0C736,0,704,0,672,0C640,0,608,0,576,0C544,0,512,0,480,0C448,0,416,0,384,0C352,0,320,0,288,0C256,0,224,0,192,0C160,0,128,0,96,0C64,0,32,0,16,0L0,0Z"></path></svg>