<svg xmlns="http://www.w3.org/2000/svg" xmlns:xlink="http://www.w3.org/1999/xlink" viewBox="0 0 1280 750"><defs><style>.a{fill:#fff;}.b{clip-path:url(#a);}.c{fill:#1c1c1c;}.d{fill:#000000;}</style><clipPath id="a"><rect class="a" width="1280" height="750" transform="translate(-30 30)"/></clipPath></defs><g transform="translate(30 -30)"><g class="b"><path class="c" d="M1335.016,577.484s13.891,69.736-106.9,0-237.975,0-237.975,0-131.234,66.274-246.023,0-251.9,0-251.9,0-129.1,66.773-244.75,0S0,577.484,0,577.484V799.094l-9.359,569.328,1292.708-20.5Z" transform="translate(-35 -497)"/></g><g class="b"><path class="d" d="M1335.016,577.484s13.891,69.736-106.9,0-237.975,0-237.975,0-131.234,66.274-246.023,0-251.9,0-251.9,0-129.1,66.773-244.75,0-265.458,3.227-265.458,3.227V799.238l-4.082,506.07,1305.415,42.613Z" transform="translate(-12 -467)"/></g></g></svg>